<?xml version="1.0" encoding="utf-8"?>
<!-- Generator: Adobe Illustrator 18.1.1, SVG Export Plug-In . SVG Version: 6.00 Build 0)  -->
<svg version="1.1" id="Layer_1" xmlns="http://www.w3.org/2000/svg" xmlns:xlink="http://www.w3.org/1999/xlink" x="0px" y="0px"
	 viewBox="0 0 32 32" enable-background="new 0 0 32 32" xml:space="preserve">
<path d="M3,5.5V0H2C0.9,0,0,0.9,0,2v3.5C0,18,15.8,32,26.5,32H30c1.1,0,2-0.9,2-2v-1h-5.5C16.7,29,3,15.6,3,5.5z"/>
<path d="M6.5,13.5l3.9-3.9C10.8,9.2,11,8.7,11,8.2V2c0-1.1-0.9-2-2-2H4c0,0,0,1.9,0,5.5C4,9.4,6.5,13.5,6.5,13.5z"/>
<path d="M18.5,25.5l3.9-3.9c0.4-0.4,0.9-0.6,1.4-0.6H30c1.1,0,2,0.9,2,2v5c0,0-1.9,0-5.5,0C22.6,28,18.5,25.5,18.5,25.5z"/>
</svg>
